<svg width="16" height="16" viewBox="0 0 16 16" fill="none" xmlns="http://www.w3.org/2000/svg">
<path d="M1.63599 5.29295C1.82351 5.10548 2.07782 5.00017 2.34299 5.00017C2.60815 5.00017 2.86246 5.10548 3.04999 5.29295L7.99999 10.243L12.95 5.29295C13.1386 5.11079 13.3912 5.01 13.6534 5.01228C13.9156 5.01456 14.1664 5.11973 14.3518 5.30513C14.5372 5.49054 14.6424 5.74135 14.6447 6.00355C14.6469 6.26575 14.5461 6.51835 14.364 6.70695L8.70699 12.364C8.51946 12.5514 8.26515 12.6567 7.99999 12.6567C7.73482 12.6567 7.48052 12.5514 7.29299 12.364L1.63599 6.70695C1.44852 6.51942 1.3432 6.26512 1.3432 5.99995C1.3432 5.73479 1.44852 5.48048 1.63599 5.29295Z" fill="black"/>
</svg>
