<svg width="16" height="16" viewBox="0 0 16 16" fill="none" xmlns="http://www.w3.org/2000/svg">
<path d="M1.63599 10.707C1.82351 10.8945 2.07782 10.9998 2.34299 10.9998C2.60815 10.9998 2.86246 10.8945 3.04999 10.707L7.99999 5.75705L12.95 10.707C13.1386 10.8892 13.3912 10.99 13.6534 10.9877C13.9156 10.9854 14.1664 10.8803 14.3518 10.6949C14.5372 10.5095 14.6424 10.2586 14.6447 9.99645C14.6469 9.73425 14.5461 9.48165 14.364 9.29305L8.70699 3.63605C8.51946 3.44858 8.26515 3.34326 7.99999 3.34326C7.73482 3.34326 7.48052 3.44858 7.29299 3.63605L1.63599 9.29305C1.44852 9.48058 1.3432 9.73488 1.3432 10C1.3432 10.2652 1.44852 10.5195 1.63599 10.707Z" fill="black"/>
</svg>
