<svg width="56" height="56" viewBox="0 0 56 56" fill="none" xmlns="http://www.w3.org/2000/svg">
<path d="M11.5009 38.217C7.27842 39.4837 4.66675 41.2337 4.66675 43.1667C4.66675 47.0327 15.1134 50.1667 28.0001 50.1667C40.8867 50.1667 51.3334 47.0327 51.3334 43.1667C51.3334 41.2337 48.7217 39.4837 44.4992 38.217" stroke="black" stroke-width="2" stroke-linecap="round" stroke-linejoin="round"/>
<path d="M28.0002 40.8334C28.0002 40.8334 43.1668 30.9214 43.1668 19.4621C43.1668 11.2908 36.3765 4.66669 28.0002 4.66669C19.6238 4.66669 12.8335 11.2908 12.8335 19.4621C12.8335 30.9214 28.0002 40.8334 28.0002 40.8334Z" fill="#2F88FF" stroke="black" stroke-width="2" stroke-linejoin="round"/>
<path d="M28.0001 25.6667C31.2217 25.6667 33.8334 23.055 33.8334 19.8333C33.8334 16.6117 31.2217 14 28.0001 14C24.7784 14 22.1667 16.6117 22.1667 19.8333C22.1667 23.055 24.7784 25.6667 28.0001 25.6667Z" fill="#43CCF8" stroke="white" stroke-width="2" stroke-linejoin="round"/>
</svg>
