<svg width="56" height="42" viewBox="0 0 56 42" fill="none" xmlns="http://www.w3.org/2000/svg">
<g clip-path="url(#clip0_319_123)">
<path d="M12.7273 41.7933V20.2688L6.01716 14.1618L0 10.7729V37.9948C0 40.0965 1.71172 41.7933 3.81828 41.7933H12.7273Z" fill="#4285F4"/>
<path d="M43.2727 41.7933H52.1817C54.2946 41.7933 56 40.0902 56 37.9948V10.7731L49.1846 14.6548L43.2727 20.2688V41.7933Z" fill="#34A853"/>
<path d="M12.7273 20.2688L11.8142 11.8586L12.7273 3.80914L28 15.2044L43.2726 3.80914L44.294 11.424L43.2726 20.2688L28 31.6641L12.7273 20.2688Z" fill="#EA4335"/>
<path d="M43.2727 3.80915V20.2688L56 10.7729V5.70829C56 1.01104 50.61 -1.66673 46.8366 1.15031L43.2727 3.80915Z" fill="#FBBC04"/>
<path d="M0 10.7729L5.85353 15.1405L12.7273 20.2688V3.80919L9.16344 1.15035C5.38344 -1.66691 0 1.01108 0 5.70812V10.7729Z" fill="#C5221F"/>
</g>
<defs>
<clipPath id="clip0_319_123">
<rect width="56" height="42" fill="white"/>
</clipPath>
</defs>
</svg>
