<svg width="92" height="93" viewBox="0 0 92 93" fill="none" xmlns="http://www.w3.org/2000/svg">
<g clip-path="url(#clip0_319_107)">
<path d="M1.9633 45.8045C1.96114 53.5947 3.99664 61.2012 7.86711 67.9057L1.59314 90.813L25.0359 84.6662C31.5199 88.196 38.7847 90.0455 46.1671 90.0461H46.1865C70.5576 90.0461 90.3961 70.2147 90.4066 45.8393C90.4112 34.0278 85.8155 22.9209 77.4658 14.5647C69.1175 6.20926 58.0147 1.60531 46.1848 1.59991C21.8109 1.59991 1.97372 21.4302 1.96366 45.8045" fill="url(#paint0_linear_319_107)"/>
<path d="M0.384531 45.7901C0.382016 53.8606 2.49047 61.7392 6.49894 68.6838L0 92.4122L24.2833 86.0452C30.9742 89.6932 38.5074 91.6166 46.1729 91.6194H46.1926C71.438 91.6194 91.9892 71.0747 92 45.8268C92.0043 33.5908 87.2433 22.0847 78.5953 13.4291C69.9462 4.77466 58.4462 0.00503125 46.1926 0C20.9429 0 0.394594 20.5419 0.384531 45.7901ZM14.8461 67.4878L13.9394 66.0485C10.1279 59.988 8.11612 52.9845 8.119 45.793C8.12691 24.8073 25.2058 7.73375 46.207 7.73375C56.3773 7.73806 65.9352 11.7027 73.1242 18.8959C80.3128 26.0899 84.2684 35.6529 84.2659 45.8239C84.2565 66.8096 67.1772 83.8853 46.1926 83.8853H46.1775C39.3447 83.8817 32.6435 82.0468 26.7993 78.5791L25.4085 77.7544L10.9983 81.5325L14.8461 67.4878Z" fill="url(#paint1_linear_319_107)"/>
<path d="M34.7437 26.6469C33.8862 24.7411 32.9838 24.7027 32.1684 24.6693C31.5007 24.6405 30.7373 24.6427 29.9747 24.6427C29.2114 24.6427 27.9712 24.9298 26.9229 26.0744C25.8736 27.2201 22.9166 29.9887 22.9166 35.6198C22.9166 41.2508 27.0182 46.6932 27.5899 47.4576C28.1624 48.2206 35.508 60.146 47.1417 64.7338C56.8104 68.5464 58.7779 67.7882 60.8763 67.597C62.9751 67.4065 67.6484 64.8291 68.6018 62.1564C69.5559 59.4841 69.556 57.1934 69.2699 56.7147C68.9838 56.2378 68.2205 55.9514 67.0759 55.3793C65.9313 54.8072 60.3038 52.0378 59.2548 51.6558C58.2054 51.2742 57.4425 51.0837 56.6792 52.2297C55.9159 53.374 53.724 55.9514 53.056 56.7147C52.3886 57.4798 51.7205 57.5751 50.5763 57.0026C49.4309 56.4283 45.7448 55.2212 41.3716 51.3223C37.969 48.2885 35.6719 44.542 35.0042 43.3959C34.3365 42.2517 34.9327 41.6314 35.5066 41.0611C36.0209 40.5483 36.6516 39.7246 37.2244 39.0565C37.7951 38.3881 37.9856 37.9112 38.3672 37.1478C38.7492 36.3838 38.5581 35.7154 38.2724 35.1429C37.9856 34.5704 35.7614 28.9099 34.7437 26.6469Z" fill="white"/>
</g>
<defs>
<linearGradient id="paint0_linear_319_107" x1="4442.26" y1="8922.91" x2="4442.26" y2="1.59991" gradientUnits="userSpaceOnUse">
<stop stop-color="#1FAF38"/>
<stop offset="1" stop-color="#60D669"/>
</linearGradient>
<linearGradient id="paint1_linear_319_107" x1="4600" y1="9241.22" x2="4600" y2="0" gradientUnits="userSpaceOnUse">
<stop stop-color="#F9F9F9"/>
<stop offset="1" stop-color="white"/>
</linearGradient>
<clipPath id="clip0_319_107">
<rect width="92" height="92.7188" fill="white"/>
</clipPath>
</defs>
</svg>
