<svg width="125" height="95" viewBox="0 0 125 95" fill="none" xmlns="http://www.w3.org/2000/svg">
<path d="M71.0002 20.5657C70.5002 20.5657 70.4997 22.5657 71.0002 22.5657C71.5006 22.5657 110.5 28.0657 113 28.0657C115.5 28.0657 115 26.0657 115 26.0657C115 26.0657 114.5 25.0657 113.5 25.0657C112.5 25.0657 111 25.0657 111 24.5657C111 24.0657 111 17.0657 110.5 16.0657C110 15.0657 105 5.56574 105 7.06574C105 8.56575 104 18.0657 104 18.0657C103.436 20.2414 102.573 20.6441 100.5 20.5657C99.0676 20.2324 98.2714 20.0312 98.0002 18.0657C98.0002 18.0657 99.5 4.06575 99.5002 3.56575C99.5003 3.06574 98 0.565745 95.5002 0.0657451C93.0003 -0.434255 90.5003 2.06574 90.5002 2.56575C90.5 3.06575 89.0002 15.5657 89.0002 15.5657C88.5673 17.5956 87.9198 18.3891 86.0002 18.5657C84.4743 18.1789 83.8938 17.5167 83.5002 15.5657C83.3712 15.8675 84.7397 5.6972 85.0002 4.56574C85.2606 3.43429 78.6514 8.55671 76.5002 12.5657C76.5002 12.5657 74.5002 19.5657 74.5002 20.0657C74.5002 20.5657 71.5002 20.5657 71.0002 20.5657Z" fill="#FFB300"/>
<path d="M73.5 24.5658V71.5658L111.5 72.0658V60.5658H94L92.5 58.5658H86C84.3174 62.0402 83.9857 63.756 85.5 66.5658C82.2225 64.12 81.3191 60.237 81 49.0658H86L85.5 55.5658H91L93.5 53.5658H101V41.7536H92.7503L91 40.0658H85C86.1101 43.179 86.5898 45.3276 85 46.5658H81.5C81.5045 44.9275 81.5019 43.9011 81.5 41.7536L81.9827 39.0083V37.5658L82.4653 36.2629C82.4653 36.2629 81.2425 34.8179 82.5 33.0658C83.4477 31.7453 85.974 27.8302 85.1929 30.3686C84.4119 32.907 84.9393 32.5273 84.1583 35.0658L85 37.0658H91L92.7503 35.0658H111V29.0658L73.5 24.5658Z" fill="#232323"/>
<path d="M0 77.0657H125V94.0657H0V77.0657Z" fill="#232323"/>
<path d="M12.7846 88.1437C12.5558 88.1437 12.3504 88.1333 12.1684 88.1125C11.9916 88.0917 11.7966 88.0527 11.5834 87.9955C11.3442 87.9331 11.1466 87.8525 10.9906 87.7537C10.8346 87.6497 10.7046 87.5067 10.6006 87.3247C10.4914 87.1427 10.4368 86.9269 10.4368 86.6773V84.4543C10.4368 83.4351 11.2194 82.9255 12.7846 82.9255C13.185 82.9255 13.7206 82.9827 14.3914 83.0971V84.0097C13.7882 83.8641 13.2578 83.7913 12.8002 83.7913C12.6078 83.7913 12.457 83.7965 12.3478 83.8069C12.2438 83.8173 12.1346 83.8433 12.0202 83.8849C11.7758 83.9681 11.6536 84.1527 11.6536 84.4387V86.5915C11.6536 87.0491 12.0722 87.2779 12.9094 87.2779C13.2682 87.2779 13.7726 87.2025 14.4226 87.0517V87.9721C13.8662 88.0865 13.3202 88.1437 12.7846 88.1437Z" fill="#FFB300"/>
<path d="M17.4855 88.1437C17.2047 88.1437 16.9447 88.1255 16.7055 88.0891C16.4715 88.0527 16.2271 87.9903 15.9723 87.9019C15.6967 87.8083 15.4809 87.6575 15.3249 87.4495C15.1689 87.2363 15.0909 86.9789 15.0909 86.6773V84.4621C15.0909 84.2125 15.1455 83.9889 15.2547 83.7913C15.3691 83.5937 15.5147 83.4377 15.6915 83.3233C15.8475 83.2245 16.0399 83.1413 16.2687 83.0737C16.4975 83.0061 16.7107 82.9645 16.9083 82.9489C17.0903 82.9333 17.2827 82.9255 17.4855 82.9255C17.7247 82.9255 17.9327 82.9359 18.1095 82.9567C18.2863 82.9723 18.4839 83.0087 18.7023 83.0659C18.9519 83.1387 19.1573 83.2271 19.3185 83.3311C19.4797 83.4351 19.6149 83.5807 19.7241 83.7679C19.8385 83.9603 19.8957 84.1917 19.8957 84.4621V86.6773C19.8957 86.9581 19.8203 87.1999 19.6695 87.4027C19.5239 87.6055 19.3211 87.7589 19.0611 87.8629C18.5931 88.0501 18.0679 88.1437 17.4855 88.1437ZM17.5011 87.2779C17.6727 87.2779 17.8157 87.2727 17.9301 87.2623C18.0497 87.2467 18.1719 87.2207 18.2967 87.1843C18.4215 87.1479 18.5151 87.0881 18.5775 87.0049C18.6451 86.9165 18.6789 86.8073 18.6789 86.6773V84.4543C18.6789 84.2151 18.5827 84.0461 18.3903 83.9473C18.1979 83.8433 17.8989 83.7913 17.4933 83.7913C17.0877 83.7913 16.7887 83.8407 16.5963 83.9395C16.4039 84.0383 16.3077 84.2099 16.3077 84.4543V86.6773C16.3077 86.8073 16.3415 86.9165 16.4091 87.0049C16.4767 87.0881 16.5755 87.1479 16.7055 87.1843C16.8303 87.2207 16.9499 87.2467 17.0643 87.2623C17.1839 87.2727 17.3295 87.2779 17.5011 87.2779Z" fill="#FFB300"/>
<path d="M20.8749 83.0035H22.1073L24.5565 86.4589V83.0035H25.6407V88.0657H24.4083L21.9591 84.5557V88.0657H20.8749V83.0035Z" fill="#FFB300"/>
<path d="M28.3705 88.1437C27.8869 88.1437 27.2889 88.0969 26.5765 88.0033V87.0751C27.4605 87.2103 28.0637 87.2779 28.3861 87.2779C29.0621 87.2779 29.4001 87.1037 29.4001 86.7553V86.4277C29.4001 86.2613 29.3507 86.1339 29.2519 86.0455C29.1583 85.9571 28.9867 85.9129 28.7371 85.9129H28.1443C27.0315 85.9129 26.4751 85.4709 26.4751 84.5869V84.2125C26.4751 83.7705 26.6597 83.4455 27.0289 83.2375C27.3981 83.0295 27.9831 82.9255 28.7839 82.9255C29.1999 82.9255 29.7277 82.9593 30.3673 83.0269V83.9317C29.5821 83.8381 29.0413 83.7913 28.7449 83.7913C28.3341 83.7913 28.0585 83.8251 27.9181 83.8927C27.7673 83.9655 27.6919 84.0799 27.6919 84.2359V84.5947C27.6919 84.8599 27.9155 84.9925 28.3627 84.9925H28.9711C29.5483 84.9925 29.9669 85.0991 30.2269 85.3123C30.4869 85.5255 30.6169 85.8505 30.6169 86.2873V86.6227C30.6169 87.2259 30.4011 87.6341 29.9695 87.8473C29.7615 87.9565 29.5301 88.0319 29.2753 88.0735C29.0257 88.1203 28.7241 88.1437 28.3705 88.1437Z" fill="#FFB300"/>
<path d="M32.6328 83.8693H31.0728V83.0035H35.4018V83.8693H33.8496V88.0657H32.6328V83.8693Z" fill="#FFB300"/>
<path d="M36.1017 83.0035H38.3793C39.0553 83.0035 39.5441 83.0867 39.8457 83.2531C40.1473 83.4143 40.2981 83.6873 40.2981 84.0721V84.9613C40.2981 85.2577 40.1915 85.4917 39.9783 85.6633C39.7703 85.8297 39.4921 85.9363 39.1437 85.9831L40.6101 88.0657H39.2061L37.8801 86.0767H37.3185V88.0657H36.1017V83.0035ZM38.3637 85.2733C38.6497 85.2733 38.8447 85.2369 38.9487 85.1641C39.0527 85.0861 39.1047 84.9379 39.1047 84.7195V84.3607C39.1047 84.1735 39.0475 84.0461 38.9331 83.9785C38.8239 83.9057 38.6341 83.8693 38.3637 83.8693H37.3185V85.2733H38.3637Z" fill="#FFB300"/>
<path d="M43.488 88.1437C42.0268 88.1437 41.2962 87.6549 41.2962 86.6773V83.0035H42.513V86.6773C42.513 86.9061 42.5858 87.0647 42.7314 87.1531C42.8822 87.2363 43.1396 87.2779 43.5036 87.2779C43.8624 87.2779 44.112 87.2363 44.2524 87.1531C44.398 87.0647 44.4708 86.9061 44.4708 86.6773V83.0035H45.6876V86.6773C45.6876 87.6549 44.9544 88.1437 43.488 88.1437Z" fill="#FFB300"/>
<path d="M48.8249 89.7817C48.5337 89.7817 48.2971 89.7219 48.1151 89.6023L48.2867 89.2435C48.4427 89.3371 48.6039 89.3839 48.7703 89.3839C49.0147 89.3839 49.1369 89.2929 49.1369 89.1109C49.1369 88.9133 48.9419 88.8145 48.5519 88.8145H48.2399L48.3335 88.6585C48.3543 88.6325 48.4219 88.5363 48.5363 88.3699L48.6923 88.1359C47.3351 88.0631 46.6565 87.5769 46.6565 86.6773V84.4543C46.6565 83.4351 47.4391 82.9255 49.0043 82.9255C49.4047 82.9255 49.9403 82.9827 50.6111 83.0971V84.0097C50.0079 83.8641 49.4775 83.7913 49.0199 83.7913C48.8275 83.7913 48.6767 83.7965 48.5675 83.8069C48.4635 83.8173 48.3543 83.8433 48.2399 83.8849C47.9955 83.9681 47.8733 84.1527 47.8733 84.4387V86.5915C47.8733 87.0491 48.2919 87.2779 49.1291 87.2779C49.4879 87.2779 49.9923 87.2025 50.6423 87.0517V87.9721C50.0807 88.0813 49.6101 88.1385 49.2305 88.1437L49.0043 88.4557C49.2331 88.4713 49.4151 88.5285 49.5503 88.6273C49.6907 88.7313 49.7609 88.8795 49.7609 89.0719C49.7609 89.2955 49.6699 89.4697 49.4879 89.5945C49.3059 89.7193 49.0849 89.7817 48.8249 89.7817Z" fill="#FFB300"/>
<path d="M53.7052 88.1437C53.4244 88.1437 53.1644 88.1255 52.9252 88.0891C52.6912 88.0527 52.4468 87.9903 52.192 87.9019C51.9164 87.8083 51.7006 87.6575 51.5446 87.4495C51.3886 87.2363 51.3106 86.9789 51.3106 86.6773V84.4621C51.3106 84.2125 51.3652 83.9889 51.4744 83.7913C51.5888 83.5937 51.7344 83.4377 51.9112 83.3233C52.0672 83.2245 52.2596 83.1413 52.4884 83.0737C52.7172 83.0061 52.9304 82.9645 53.128 82.9489C53.31 82.9333 53.5024 82.9255 53.7052 82.9255C53.9444 82.9255 54.1524 82.9359 54.3292 82.9567C54.506 82.9723 54.7036 83.0087 54.922 83.0659C55.1716 83.1387 55.377 83.2271 55.5382 83.3311C55.6994 83.4351 55.8346 83.5807 55.9438 83.7679C56.0582 83.9603 56.1154 84.1917 56.1154 84.4621V86.6773C56.1154 86.9581 56.04 87.1999 55.8892 87.4027C55.7436 87.6055 55.5408 87.7589 55.2808 87.8629C54.8128 88.0501 54.2876 88.1437 53.7052 88.1437ZM53.7208 87.2779C53.8924 87.2779 54.0354 87.2727 54.1498 87.2623C54.2694 87.2467 54.3916 87.2207 54.5164 87.1843C54.6412 87.1479 54.7348 87.0881 54.7972 87.0049C54.8648 86.9165 54.8986 86.8073 54.8986 86.6773V84.4543C54.8986 84.2151 54.8024 84.0461 54.61 83.9473C54.4176 83.8433 54.1186 83.7913 53.713 83.7913C53.3074 83.7913 53.0084 83.8407 52.816 83.9395C52.6236 84.0383 52.5274 84.2099 52.5274 84.4543V86.6773C52.5274 86.8073 52.5612 86.9165 52.6288 87.0049C52.6964 87.0881 52.7952 87.1479 52.9252 87.1843C53.05 87.2207 53.1696 87.2467 53.284 87.2623C53.4036 87.2727 53.5492 87.2779 53.7208 87.2779ZM54.142 82.4809C54.0068 82.4809 53.8248 82.4263 53.596 82.3171L53.2684 82.1611C53.0864 82.1611 52.9928 82.2391 52.9876 82.3951H52.4182C52.4234 82.0987 52.5014 81.8881 52.6522 81.7633C52.803 81.6333 53.0266 81.5683 53.323 81.5683C53.4738 81.5683 53.6454 81.6177 53.8378 81.7165C54.0302 81.8153 54.1446 81.8647 54.181 81.8647C54.3526 81.8647 54.4384 81.7737 54.4384 81.5917H55C54.9896 82.1845 54.7036 82.4809 54.142 82.4809Z" fill="#FFB300"/>
<path d="M57.0946 83.0035H60.9556V83.8693H58.3114V85.0315H60.6982V85.8973H58.3114V87.1999H61.0336V88.0657H57.0946V83.0035Z" fill="#FFB300"/>
<path d="M63.4934 88.1437C63.0098 88.1437 62.4118 88.0969 61.6994 88.0033V87.0751C62.5834 87.2103 63.1866 87.2779 63.509 87.2779C64.185 87.2779 64.523 87.1037 64.523 86.7553V86.4277C64.523 86.2613 64.4736 86.1339 64.3748 86.0455C64.2812 85.9571 64.1096 85.9129 63.86 85.9129H63.2672C62.1544 85.9129 61.598 85.4709 61.598 84.5869V84.2125C61.598 83.7705 61.7826 83.4455 62.1518 83.2375C62.521 83.0295 63.106 82.9255 63.9068 82.9255C64.3228 82.9255 64.8506 82.9593 65.4902 83.0269V83.9317C64.705 83.8381 64.1642 83.7913 63.8678 83.7913C63.457 83.7913 63.1814 83.8251 63.041 83.8927C62.8902 83.9655 62.8148 84.0799 62.8148 84.2359V84.5947C62.8148 84.8599 63.0384 84.9925 63.4856 84.9925H64.094C64.6712 84.9925 65.0898 85.0991 65.3498 85.3123C65.6098 85.5255 65.7398 85.8505 65.7398 86.2873V86.6227C65.7398 87.2259 65.524 87.6341 65.0924 87.8473C64.8844 87.9565 64.653 88.0319 64.3982 88.0735C64.1486 88.1203 63.847 88.1437 63.4934 88.1437Z" fill="#FFB300"/>
<path d="M68.3833 83.0035H72.2443V83.8693H69.6001V85.0315H71.9869V85.8973H69.6001V87.1999H72.3223V88.0657H68.3833V83.0035Z" fill="#FFB300"/>
<path d="M74.9417 83.0035H77.2193C77.8953 83.0035 78.3841 83.0867 78.6857 83.2531C78.9873 83.4143 79.1381 83.6873 79.1381 84.0721V84.9613C79.1381 85.2577 79.0315 85.4917 78.8183 85.6633C78.6103 85.8297 78.3321 85.9363 77.9837 85.9831L79.4501 88.0657H78.0461L76.7201 86.0767H76.1585V88.0657H74.9417V83.0035ZM77.2037 85.2733C77.4897 85.2733 77.6847 85.2369 77.7887 85.1641C77.8927 85.0861 77.9447 84.9379 77.9447 84.7195V84.3607C77.9447 84.1735 77.8875 84.0461 77.7731 83.9785C77.6639 83.9057 77.4741 83.8693 77.2037 83.8693H76.1585V85.2733H77.2037Z" fill="#FFB300"/>
<path d="M80.1519 83.0035H84.0129V83.8693H81.3687V85.0315H83.7555V85.8973H81.3687V87.1999H84.0909V88.0657H80.1519V83.0035Z" fill="#FFB300"/>
<path d="M84.9126 83.0035H88.8516V83.8693H86.1294V85.1095H88.5942V85.9753H86.1294V88.0657H84.9126V83.0035Z" fill="#FFB300"/>
<path d="M91.9587 88.1437C91.6779 88.1437 91.4179 88.1255 91.1787 88.0891C90.9447 88.0527 90.7003 87.9903 90.4455 87.9019C90.17 87.8083 89.9541 87.6575 89.7981 87.4495C89.6422 87.2363 89.5641 86.9789 89.5641 86.6773V84.4621C89.5641 84.2125 89.6188 83.9889 89.728 83.7913C89.8424 83.5937 89.9879 83.4377 90.1647 83.3233C90.3207 83.2245 90.5132 83.1413 90.742 83.0737C90.9707 83.0061 91.184 82.9645 91.3816 82.9489C91.5636 82.9333 91.756 82.9255 91.9587 82.9255C92.1979 82.9255 92.4059 82.9359 92.5827 82.9567C92.7596 82.9723 92.9572 83.0087 93.1756 83.0659C93.4252 83.1387 93.6305 83.2271 93.7917 83.3311C93.9529 83.4351 94.0882 83.5807 94.1973 83.7679C94.3118 83.9603 94.3689 84.1917 94.3689 84.4621V86.6773C94.3689 86.9581 94.2936 87.1999 94.1428 87.4027C93.9972 87.6055 93.7943 87.7589 93.5343 87.8629C93.0663 88.0501 92.5411 88.1437 91.9587 88.1437ZM91.9743 87.2779C92.146 87.2779 92.2889 87.2727 92.4034 87.2623C92.5229 87.2467 92.6451 87.2207 92.77 87.1843C92.8948 87.1479 92.9883 87.0881 93.0508 87.0049C93.1183 86.9165 93.1522 86.8073 93.1522 86.6773V84.4543C93.1522 84.2151 93.0559 84.0461 92.8635 83.9473C92.6712 83.8433 92.3722 83.7913 91.9666 83.7913C91.561 83.7913 91.2619 83.8407 91.0695 83.9395C90.8772 84.0383 90.781 84.2099 90.781 84.4543V86.6773C90.781 86.8073 90.8148 86.9165 90.8823 87.0049C90.9499 87.0881 91.0488 87.1479 91.1787 87.1843C91.3036 87.2207 91.4231 87.2467 91.5376 87.2623C91.6572 87.2727 91.8027 87.2779 91.9743 87.2779Z" fill="#FFB300"/>
<path d="M95.3482 83.0035H97.6258C98.3018 83.0035 98.7906 83.0867 99.0922 83.2531C99.3938 83.4143 99.5446 83.6873 99.5446 84.0721V84.9613C99.5446 85.2577 99.438 85.4917 99.2248 85.6633C99.0168 85.8297 98.7385 85.9363 98.3902 85.9831L99.8566 88.0657H98.4526L97.1266 86.0767H96.565V88.0657H95.3482V83.0035ZM97.6102 85.2733C97.8962 85.2733 98.0912 85.2369 98.1952 85.1641C98.2991 85.0861 98.3512 84.9379 98.3512 84.7195V84.3607C98.3512 84.1735 98.294 84.0461 98.1796 83.9785C98.0704 83.9057 97.8806 83.8693 97.6102 83.8693H96.565V85.2733H97.6102Z" fill="#FFB300"/>
<path d="M100.558 83.0035H102.29L103.538 86.6227L104.77 83.0035H106.401V88.0657H105.301V84.3217H105.277L103.998 88.0657H103.023L101.705 84.3217H101.674V88.0657H100.558V83.0035Z" fill="#FFB300"/>
<path d="M108.832 83.0035H110.314L112.139 88.0657H110.906L110.454 86.7319H108.605L108.161 88.0657H106.96L108.832 83.0035ZM110.189 85.9207L109.549 84.0175H109.518L108.878 85.9207H110.189Z" fill="#FFB300"/>
<path d="M114.338 88.1437C113.855 88.1437 113.257 88.0969 112.544 88.0033V87.0751C113.428 87.2103 114.031 87.2779 114.354 87.2779C115.03 87.2779 115.368 87.1037 115.368 86.7553V86.4277C115.368 86.2613 115.318 86.1339 115.22 86.0455C115.126 85.9571 114.954 85.9129 114.705 85.9129H114.112C112.999 85.9129 112.443 85.4709 112.443 84.5869V84.2125C112.443 83.7705 112.627 83.4455 112.997 83.2375C113.366 83.0295 113.951 82.9255 114.752 82.9255C115.168 82.9255 115.695 82.9593 116.335 83.0269V83.9317C115.55 83.8381 115.009 83.7913 114.713 83.7913C114.302 83.7913 114.026 83.8251 113.886 83.8927C113.735 83.9655 113.66 84.0799 113.66 84.2359V84.5947C113.66 84.8599 113.883 84.9925 114.33 84.9925H114.939C115.516 84.9925 115.935 85.0991 116.195 85.3123C116.455 85.5255 116.585 85.8505 116.585 86.2873V86.6227C116.585 87.2259 116.369 87.6341 115.937 87.8473C115.729 87.9565 115.498 88.0319 115.243 88.0735C114.993 88.1203 114.692 88.1437 114.338 88.1437Z" fill="#FFB300"/>
<path d="M10.5 71.8881L10 42.3881L21.5 41.3881C24.2034 45.6463 26.0177 46.2473 29.5 45.8881C33.6269 45.2203 36.3855 45.7592 36.5 39.7104C35.3463 39.8154 28.5 39.5658 27 39.3881C25.5 39.2104 24 36.0658 27 34.5658C30 33.0658 36 35.0658 36.5 33.8881C37 32.7104 32.0412 29.3012 28.5 29.5658C25.1897 29.813 23 30.5658 21.5 34.3881L10.5 35.8881V25.3881C24.7336 22.1434 31.2019 22.4436 41 25.3881C48.1042 29.5334 50.1494 32.6415 50.5 37.8881C50.42 45.1537 49.1442 47.8106 43.5 51.8881C49.3781 58.4422 50.7358 62.438 51.5 71.8881H35.5C35.5 71.8881 33.5 62.3881 31 58.3881C28.5 54.3881 26 56.8881 26 56.8881V71.8881H10.5Z" fill="#232323"/>
<path d="M56.1335 69.8897C58.115 72.2972 62.3257 73.0344 64.6068 70.9148C65.8255 71.3075 68.4379 72.1017 68.4927 71.7125C68.6335 70.7125 68.6335 70.3452 68.6335 69.3897C68.6335 68.3941 65.936 69.8384 65.6338 68.8897C65.5005 68.4714 68.9857 61.3897 67.6338 61.3897H65.1338C63.3656 61.3897 64.5 64.0657 64.6335 65.3897C64.7914 66.956 61.8468 63.4377 62.1335 61.8897C62.3849 60.5321 63.9723 60.6018 64.6335 59.3897C65.7555 57.3327 66.2228 55.1115 64.6335 53.3897C62.9117 51.5245 60.0517 51.7272 58.1335 53.3897C55.9201 55.308 58.1335 60.8897 58.1335 60.8897C58.1335 60.8897 57.1238 61.7219 56.6335 62.3897C54.8963 64.7559 54.268 67.6233 56.1335 69.8897Z" fill="#FFB300"/>
<path d="M60.392 55.1062C59.2569 57.1178 60.9569 59.4888 60.8707 59.0012C62.0723 57.3876 63.0942 56.4009 62 54.5657C62 54.5657 61.5271 53.0945 60.392 55.1062Z" fill="#DBBA73" fill-opacity="0.6"/>
<path d="M59.5004 64.0657C60.3082 65.0636 62.5004 68.5657 62.5004 68.5657C62.6272 68.8218 62 69.5657 61.0004 69.5657C60.0012 69.5658 59.5006 69.0656 59.0004 68.5657C58.5 68.0657 58.5004 66.0657 58.5004 66.0657C58.5004 66.0657 58.6926 63.0679 59.5004 64.0657Z" fill="#DBBA73" fill-opacity="0.6"/>
</svg>
